<svg width="27" height="34" viewBox="0 0 27 34" fill="none" xmlns="http://www.w3.org/2000/svg">
<path id="medal_8992446 1 (Traced)" fill-rule="evenodd" clip-rule="evenodd" d="M12.7477 0.0683186C12.4089 0.154476 12.0195 0.336655 11.2727 0.758233C10.7922 1.02946 10.1701 1.1589 9.33998 1.16034C8.93011 1.161 8.54162 1.20145 8.32057 1.26636C7.4123 1.53312 6.67858 2.1276 6.21511 2.97207C5.75118 3.8174 5.29659 4.26423 4.43127 4.7254C4.21239 4.84208 3.86612 5.10476 3.66164 5.30923C2.97732 5.99356 2.67228 6.85907 2.67715 8.10256C2.68024 8.88804 2.55114 9.33796 2.10437 10.0988C1.71436 10.763 1.55086 11.3071 1.55086 11.9406C1.55086 12.6344 1.69239 13.1208 2.10772 13.8548C2.56567 14.6641 2.66866 15.0306 2.67005 15.8563C2.67156 16.7018 2.79744 17.2891 3.10129 17.8674C3.40034 18.4365 3.96957 18.9832 4.6412 19.3465C5.28975 19.6973 5.72481 20.1378 6.16763 20.8921C6.70187 21.8021 7.37757 22.3929 8.17772 22.6496C8.35595 22.7068 8.91183 22.7706 9.47599 22.7987C10.5774 22.8536 10.9234 22.9489 11.6629 23.4014C12.3031 23.7933 12.796 23.9388 13.4879 23.9406C14.2181 23.9424 14.6166 23.8283 15.3774 23.3994C16.2362 22.9153 16.4459 22.858 17.5655 22.8019C18.6059 22.7499 18.9605 22.6679 19.5057 22.3537C20.01 22.0631 20.478 21.5613 20.8662 20.8952C21.3019 20.1477 21.74 19.7059 22.402 19.3465C23.0732 18.9822 23.6417 18.4354 23.9404 17.8671C24.2425 17.2922 24.3689 16.6999 24.3638 15.8825C24.3589 15.0782 24.4756 14.6629 24.9334 13.8548C25.3491 13.1212 25.4907 12.6348 25.4907 11.9406C25.4907 11.3071 25.3272 10.763 24.9372 10.0988C24.4904 9.33796 24.3613 8.88804 24.3644 8.10256C24.371 6.41816 23.8357 5.44024 22.4653 4.63339C21.6869 4.17505 21.2608 3.7494 20.8604 3.03035C20.4864 2.35865 20.0103 1.8642 19.4516 1.56706C18.8536 1.24906 18.7209 1.2194 17.6313 1.16034C16.5161 1.09997 16.1372 0.998026 15.4229 0.566385C15.1837 0.421891 14.8133 0.241554 14.5996 0.165656C14.1137 -0.00698657 13.2271 -0.0536166 12.7477 0.0683186ZM13.9811 5.49154C14.0716 5.55725 14.5777 6.24499 15.1058 7.01994C15.6975 7.88822 16.1392 8.47107 16.2567 8.53881C16.3616 8.59925 17.1459 8.86943 17.9996 9.13921C18.8533 9.40899 19.6277 9.67943 19.7204 9.74014C20.0367 9.94744 20.1877 10.4709 20.0215 10.7845C19.9797 10.8635 19.5262 11.446 19.0139 12.0791C18.5015 12.7121 18.0252 13.3175 17.9555 13.4244C17.8408 13.6002 17.8253 13.7864 17.7938 15.3663C17.7605 17.0338 17.7521 17.1249 17.6104 17.3541C17.4662 17.5873 17.0205 17.8667 16.7925 17.8667C16.7338 17.8667 16.0846 17.6563 15.3499 17.3992C13.3501 16.6993 13.7352 16.7057 11.8827 17.3412C10.39 17.8532 10.2785 17.8816 10.0419 17.8108C9.76386 17.7275 9.46422 17.4628 9.36044 17.209C9.32347 17.1186 9.27448 16.2751 9.25159 15.3346C9.22548 14.2623 9.18227 13.5756 9.1357 13.4931C9.09486 13.4208 8.59982 12.7844 8.03559 12.0791C6.96599 10.7419 6.85695 10.5404 7.0069 10.1784C7.17205 9.7798 7.37008 9.67878 9.01561 9.15381C9.88376 8.87679 10.6802 8.6003 10.7854 8.5394C10.9025 8.47152 11.3613 7.86797 11.9692 6.9818C12.7316 5.8705 13.0151 5.50779 13.1919 5.41742C13.4545 5.28319 13.7297 5.30903 13.9811 5.49154ZM3.92327 21.424C2.61993 24.1597 0.495994 29.4503 0.500006 29.9511C0.502176 30.2274 0.722962 30.6551 0.944997 30.8132C1.28384 31.0545 1.50515 31.0036 3.32971 30.2641C4.26691 29.8843 5.08955 29.5736 5.15781 29.5736C5.46726 29.5736 5.60399 29.8096 6.29055 31.5293C6.6626 32.4612 7.00822 33.2881 7.05846 33.3668C7.16113 33.5274 7.46011 33.6512 7.74555 33.6512C7.96495 33.6512 8.3743 33.4579 8.53168 33.28C8.98779 32.7645 12.3902 25.1044 12.2225 24.9707C12.195 24.9488 12.0548 24.8908 11.9109 24.842C11.767 24.7931 11.356 24.5886 10.9976 24.3877L10.346 24.0223L9.35195 23.9774C8.00632 23.9165 7.41151 23.7299 6.4968 23.0818C6.01563 22.7408 5.47015 22.1064 5.16373 21.5316C4.96176 21.1525 4.48513 20.5632 4.38062 20.5632C4.35458 20.5632 4.14879 20.9506 3.92327 21.424ZM22.3585 20.8428C22.2124 20.9965 21.962 21.3575 21.8022 21.645C21.4509 22.277 20.7594 22.9921 20.1596 23.3437C19.4363 23.7676 18.8283 23.9237 17.6925 23.9772L16.7015 24.0238L16.2456 24.2794C15.5991 24.642 15.0513 24.904 14.9396 24.904C14.887 24.904 14.827 24.9313 14.8063 24.9647C14.7093 25.1217 16.7867 29.9288 17.9821 32.3133C18.4683 33.2832 18.5515 33.3917 18.9305 33.5501C19.238 33.6785 19.4621 33.6781 19.7353 33.5485C19.987 33.4291 20.0181 33.3655 20.8569 31.2637C21.1716 30.4751 21.472 29.787 21.5244 29.7347C21.7558 29.5033 21.9065 29.5394 23.7037 30.2575C24.6684 30.643 25.5407 30.9575 25.6419 30.9565C26.1244 30.9517 26.5092 30.4946 26.4998 29.9376C26.494 29.5877 26.0926 28.4409 25.1698 26.1373C24.3379 24.0606 22.7673 20.5632 22.6665 20.5632C22.6433 20.5632 22.5046 20.6891 22.3585 20.8428Z" fill="url(#paint0_angular_5463_5358)"/>
<defs>
<radialGradient id="paint0_angular_5463_5358" cx="0" cy="0" r="1" gradientUnits="userSpaceOnUse" gradientTransform="translate(13.8182 10.6052) rotate(-179.783) scale(21.7038 17.926)">
<stop offset="0.158137" stop-color="#FA3000"/>
<stop offset="0.159753" stop-color="#F82300"/>
<stop offset="0.280185" stop-color="#FA00D8"/>
<stop offset="0.50935" stop-color="#4889FA"/>
<stop offset="0.694189" stop-color="#F6D00A"/>
<stop offset="0.838514" stop-color="#7EE140"/>
<stop offset="1" stop-color="#F9CC07"/>
</radialGradient>
</defs>
</svg>
